<?xml version="1.0" encoding="UTF-8" standalone="no"?>
<svg
   width="96"
   height="96"
   fill="none"
   viewBox="0 0 96 96"
   version="1.1"
   id="svg4"
   sodipodi:docname="clear.svg"
   inkscape:version="1.2.2 (732a01da63, 2022-12-09)"
   xmlns:inkscape="http://www.inkscape.org/namespaces/inkscape"
   xmlns:sodipodi="http://sodipodi.sourceforge.net/DTD/sodipodi-0.dtd"
   xmlns="http://www.w3.org/2000/svg"
   xmlns:svg="http://www.w3.org/2000/svg">
  <defs
     id="defs8" />
  <sodipodi:namedview
     id="namedview6"
     pagecolor="#505050"
     bordercolor="#ffffff"
     borderopacity="1"
     inkscape:showpageshadow="0"
     inkscape:pageopacity="0"
     inkscape:pagecheckerboard="1"
     inkscape:deskcolor="#505050"
     showgrid="false"
     inkscape:zoom="34.541667"
     inkscape:cx="9.7418577"
     inkscape:cy="12.014475"
     inkscape:window-width="1920"
     inkscape:window-height="1009"
     inkscape:window-x="-8"
     inkscape:window-y="-8"
     inkscape:window-maximized="1"
     inkscape:current-layer="svg4" />
  <path
     d="M 48,5.5 C 71.47275,5.5 90.5,24.52725 90.5,48 90.5,71.47275 71.47275,90.5 48,90.5 24.52725,90.5 5.5,71.47275 5.5,48 5.5,24.52725 24.52725,5.5 48,5.5 Z m 0,6.375 a 36.125,36.125 0 1 0 0,72.25 36.125,36.125 0 0 0 0,-72.25 z m 14.6455,20.81225 0.357,0.31025 a 3.1875,3.1875 0 0 1 0.31025,4.148 L 63.0025,37.5025 52.50925,48 63.00675,58.4975 a 3.1875,3.1875 0 0 1 0.306,4.148 l -0.31025,0.357 a 3.1875,3.1875 0 0 1 -4.148,0.31025 L 58.4975,63.0025 48,52.50925 37.5025,63.00675 a 3.1875,3.1875 0 0 1 -4.148,0.306 l -0.357,-0.31025 a 3.1875,3.1875 0 0 1 -0.31025,-4.148 L 32.9975,58.4975 43.49075,48 32.99325,37.5025 a 3.1875,3.1875 0 0 1 -0.306,-4.148 l 0.31025,-0.357 a 3.1875,3.1875 0 0 1 4.148,-0.31025 L 37.5025,32.9975 48,43.49075 58.4975,32.99325 a 3.1875,3.1875 0 0 1 4.148,-0.306 z"
     fill="#212121"
     id="path2"
     style="fill:#ffffff;fill-opacity:1;stroke-width:4.25" />
</svg>
