<?xml version="1.0" encoding="UTF-8" standalone="no"?>
<svg
   viewBox="0 0 360 360"
   version="1.1"
   id="svg4"
   sodipodi:docname="LLTStoreTrueship.svg"
   xml:space="preserve"
   inkscape:version="1.2.2 (732a01da63, 2022-12-09)"
   xmlns:inkscape="http://www.inkscape.org/namespaces/inkscape"
   xmlns:sodipodi="http://sodipodi.sourceforge.net/DTD/sodipodi-0.dtd"
   xmlns="http://www.w3.org/2000/svg"
   xmlns:svg="http://www.w3.org/2000/svg"><defs
     id="defs8"><inkscape:path-effect
       effect="fillet_chamfer"
       id="path-effect1852"
       is_visible="true"
       lpeversion="1"
       nodesatellites_param="F,0,0,1,0,10,0,1 @ F,0,1,1,0,6.000062,0,1 @ F,0,0,1,0,10,0,1 @ F,0,0,1,0,10,0,1"
       unit="px"
       method="auto"
       mode="F"
       radius="10"
       chamfer_steps="1"
       flexible="false"
       use_knot_distance="true"
       apply_no_radius="true"
       apply_with_radius="true"
       only_selected="true"
       hide_knots="false" /></defs><sodipodi:namedview
     id="namedview6"
     pagecolor="#505050"
     bordercolor="#ffffff"
     borderopacity="1"
     inkscape:showpageshadow="0"
     inkscape:pageopacity="0"
     inkscape:pagecheckerboard="1"
     inkscape:deskcolor="#505050"
     showgrid="false"
     inkscape:zoom="0.81415489"
     inkscape:cx="84.136324"
     inkscape:cy="262.84925"
     inkscape:window-width="1920"
     inkscape:window-height="1009"
     inkscape:window-x="1912"
     inkscape:window-y="-8"
     inkscape:window-maximized="1"
     inkscape:current-layer="svg4" /><path
     id="path1364"
     style="fill:#ff4d00"
     d="m 179.99902,0.00293 c -24.83394,0 -48.50882,5.0564243 -70.05078,14.191406 -17.08096,7.241986 -32.78924,17.08468 -46.69922,28.972656 -38.66792,33.040933 -63.25,82.108038 -63.25,136.835938 0,54.7279 24.58308,103.80014 63.25,136.83008 6.88,5.87998 14.19227,11.25461 21.90625,16.05859 27.56096,17.15796 60.05683,27.10547 94.84375,27.10547 24.83496,0 48.50984,-5.05541 70.05078,-14.19141 17.07998,-7.24298 32.7912,-17.08467 46.70118,-28.97265 38.66692,-33.03994 63.25,-82.10618 63.25,-136.83008 0,-11.47798 -1.12741,-22.6941 -3.19141,-33.58008 h -0.002 c -2.953,-15.58396 -7.8771,-30.47716 -14.58008,-44.36914 C 335.13956,87.359742 326.07536,73.80139 315.44238,61.649414 303.3394,47.814442 289.19183,35.814224 273.42285,26.198242 246.17191,9.5842757 214.18396,0.00293 179.99902,0.00293 Z m 0,16.482422 c 31.05478,0 60.11344,8.70417 84.86914,23.796875 14.32508,8.735491 27.17906,19.634954 38.17383,32.203125 9.65936,11.039277 17.89306,23.356567 24.33203,36.705078 6.08924,12.61996 10.56155,26.14962 13.24414,40.30664 h 0.002 c 1.87499,9.8892 2.89843,20.07887 2.89843,30.50586 0,49.71308 -22.33261,94.28615 -57.45898,124.30078 -12.6363,10.79945 -26.90778,19.74053 -42.42383,26.32031 -19.56855,8.29946 -41.07578,12.89258 -63.63672,12.89258 -31.60166,0 -61.1209,-9.03809 -86.1582,-24.625 -7.00765,-4.3641 -13.65233,-9.2463 -19.90234,-14.58789 -35.12643,-30.00554 -57.45903,-74.58406 -57.45903,-124.30078 0,-49.71672 22.33169,-94.29111 57.45899,-124.306641 12.63628,-10.79945 26.90688,-19.741442 42.42382,-26.320312 19.56946,-8.298536 41.07671,-12.890625 63.63672,-12.890625 z M 79.10059,85.686524 c -4.03645,4e-4 -7.83946,3.272176 -8.4961,7.308594 l -1.86523,11.476562 h 98.87695 a 8.9851634,10.569541 47.32368 0 1 8.16016,9.74414 8.9851634,10.569541 47.32368 0 1 -11.32813,9.74609 H 65.56934 43.37207 a 6.7388725,7.9271555 47.32368 0 0 -8.49805,7.3086 6.7388725,7.9271555 47.32368 0 0 6.1211,7.30859 h 22.19726 81.65235 a 8.9851634,10.569541 47.32368 0 1 8.16211,9.7461 8.9851634,10.569541 47.32368 0 1 -11.33204,9.74414 H 60.02441 a 6.7388725,7.9271555 47.32368 0 0 -8.49804,7.30859 6.7388725,7.9271555 47.32368 0 0 6.12109,7.30859 h 92.72461 a 8.9851634,10.569541 47.32368 0 1 8.16016,9.7461 8.9851634,10.569541 47.32368 0 1 -11.33008,9.74414 H 54.47949 48.44238 a 6.7388725,7.9271555 47.32368 0 0 -8.49804,7.31055 6.7388725,7.9271555 47.32368 0 0 6.11914,7.30859 h 6.03906 l -5.91602,36.39453 c -0.65585,4.03641 2.0828,7.30818 6.11914,7.30859 h 19.08399 c 3.20123,13.59452 15.47506,23.81446 30.00195,23.81446 14.52693,0 26.79875,-10.21994 30,-23.81446 h 93.20899 c 3.20162,13.59453 15.47698,23.81446 30.0039,23.81446 14.52694,0 26.79877,-10.21993 30,-23.81446 h 21.75781 c 4.03638,-4.1e-4 7.8414,-3.27218 8.49805,-7.30859 l 10.26563,-63.14062 c 0.2088,-1.2829 0.0757,-2.54321 -0.38477,-3.6543 L 288.63379,89.340821 c -0.9382,-2.261539 -3.12488,-3.654462 -5.73633,-3.654297 z m 173.27734,14.617186 h 18.07617 a 9.3376899,10.98423 47.32368 0 1 7.94727,5.06445 l 22.51562,54.28516 a 5.1876211,6.102368 47.32368 0 1 -6.24609,8.43945 h -53.31446 a 8.9851634,10.569541 47.32368 0 1 -8.16015,-9.74609 l 7.85156,-48.29687 a 8.9851634,10.569541 47.32368 0 1 11.33008,-9.7461 z M 101.3916,227.28418 c 9.03681,0 16.20508,7.16829 16.20508,16.20508 0,9.03681 -7.16827,16.20703 -16.20508,16.20703 -9.0368,0 -16.20508,-7.17022 -16.20508,-16.20703 0,-9.03679 7.16828,-16.20508 16.20508,-16.20508 z m 153.21289,0 c 9.03682,0 16.20508,7.16828 16.20508,16.20508 0,9.03682 -7.16826,16.20703 -16.20508,16.20703 -9.03681,0 -16.20703,-7.17021 -16.20703,-16.20703 0,-9.0368 7.17022,-16.20508 16.20703,-16.20508 z" /><path
     style="color:#000000;fill:#000000;stroke-width:15;stroke-linecap:round;stroke-linejoin:round;stroke-dashoffset:4.15749;-inkscape-stroke:none;paint-order:markers fill stroke"
     d="M 321.62144,463.3611 H 454.58139"
     id="path1892" /><path
     style="color:#000000;fill:#000000;stroke-width:15;stroke-linecap:round;stroke-linejoin:round;stroke-dashoffset:4.15749;-inkscape-stroke:none;paint-order:markers fill stroke"
     d="M 344.39844,498.3609 H 477.35839"
     id="path1904" /><path
     style="color:#000000;fill:#000000;stroke-width:15;stroke-linecap:round;stroke-linejoin:round;stroke-dashoffset:4.15749;-inkscape-stroke:none;paint-order:markers fill stroke"
     d="M 338.20305,533.3611 H 471.163"
     id="path1916" /></svg>
